PathFileType	3	(X/Y/Z)	F:\ViconData\AntennenMessung\Messung1\Session1\ID11.trc
DataRate	CameraRate	NumFrames	NumMarkers	Units	OrigDataRate	OrigDataStartFrame	OrigNumFrames
120.0	120.0	4	70	mm	120.0	1126	1286	
Frame#	Time	Ashort			Along			Atop			A4			Bshort			Blong			Btop			B4			Cshort			Clong			Ctop			C4			Dshort			Dlong			Dtop			D4			Eshort			Elong			Etop			E4			Fshort			Flong			Ftop			F4			Gshort			Glong			Gtop			G4			Hshort			Hlong			Htop			H4			I1			I2			I3			I4			I5			WandAshort			WandAlong			WandAtop			WandA4			WandA15			WandBshort			WandB4			WandB5			WandBtop			WandBlong			WandCshort			WandClong			WandCtop			WandC4			WandC5			Acenter			Aantenna			Bcenter			Bantenna			Ccenter			Cantenna			Dcenter			Dantenna			Ecenter			Eantenna			Fcenter			Fantenna			Gcenter			Gantenna			Hcenter			Hantenna			Icenter			Iantenna			
		X1	Y1	Z1	X2	Y2	Z2	X3	Y3	Z3	X4	Y4	Z4	X5	Y5	Z5	X6	Y6	Z6	X7	Y7	Z7	X8	Y8	Z8	X9	Y9	Z9	X10	Y10	Z10	X11	Y11	Z11	X12	Y12	Z12	X13	Y13	Z13	X14	Y14	Z14	X15	Y15	Z15	X16	Y16	Z16	X17	Y17	Z17	X18	Y18	Z18	X19	Y19	Z19	X20	Y20	Z20	X21	Y21	Z21	X22	Y22	Z22	X23	Y23	Z23	X24	Y24	Z24	X25	Y25	Z25	X26	Y26	Z26	X27	Y27	Z27	X28	Y28	Z28	X29	Y29	Z29	X30	Y30	Z30	X31	Y31	Z31	X32	Y32	Z32	X33	Y33	Z33	X34	Y34	Z34	X35	Y35	Z35	X36	Y36	Z36	X37	Y37	Z37	X38	Y38	Z38	X39	Y39	Z39	X40	Y40	Z40	X41	Y41	Z41	X42	Y42	Z42	X43	Y43	Z43	X44	Y44	Z44	X45	Y45	Z45	X46	Y46	Z46	X47	Y47	Z47	X48	Y48	Z48	X49	Y49	Z49	X50	Y50	Z50	X51	Y51	Z51	X52	Y52	Z52	X53	Y53	Z53	X54	Y54	Z54	X55	Y55	Z55	X56	Y56	Z56	X57	Y57	Z57	X58	Y58	Z58	X59	Y59	Z59	X60	Y60	Z60	X61	Y61	Z61	X62	Y62	Z62	X63	Y63	Z63	X64	Y64	Z64	X65	Y65	Z65	X66	Y66	Z66	X67	Y67	Z67	X68	Y68	Z68	X69	Y69	Z69	X70	Y70	Z70	
1126	9.375	-1038.2018	214.43126	-1644.2286	-1109.307	203.90297	-1599.3832	-1063.8197	172.58646	-1625.4193	-1054.1564	262.14856	-1634.9579	-1352.9403	234.82962	1003.7239	-1281.2574	227.09302	1052.4233	-1322.8671	194.03963	1020.8496	-1284.6147	287.89627	1052.7047	814.0625	187.57837	1209.5715	892.75726	179.09868	1178.7882	844.35345	145.47702	1198.3794	860.64508	292.76221	1167.3195	1115.7174	209.4736	-1401.5592	1056.2312	194.04402	-1460.3062	1095.0593	162.79756	-1424.1443	1069.8722	238.6087	-1425.8783	-1204.5314	1685.9612	-1563.2504	-1129.1267	1688.2095	-1606.0319	-1173.1349	1724.4321	-1581.9769	-1133.7336	1580.9857	-1603.7129	-1239.6915	1699.2218	1119.4706	-1309.3142	1698.7294	1071.8861	-1270.4257	1736.3022	1096.8663	-1244.6832	1593.8062	1106.6704	988.87598	1664.2158	1162.3099	957.53723	1700.3248	1183.8444	922.69788	1662.0922	1215.0443	939.8515	1659.3704	1159.9706	999.10168	1668.5309	-1579.4514	1058.8849	1670.1276	-1518.6517	1025.0168	1708.0057	-1551.1309	1059.2715	1672.12	-1585.4514	-26.489845	1172.9473	-954.25616	-111.4161	1171.6708	-962.95819	-64.769432	1209.6072	-959.30707	-60.640915	1170.5981	-989.68494	-68.953362	1175.3519	-910.44556																																														-1068.9666	209.87604	-1624.8256	-1074.2983	248.50496	-1624.2106	-1321.6407	231.45149	1024.9879	-1320.3708	270.19449	1029.2737	847.72607	183.95096	1196.4032	851.12726	222.75122	1194.41	1088.7567	202.48051	-1428.1848	1082.67	240.80444	-1432.0872	-1171.8971	1686.9341	-1581.7656	-1170.6104	1647.9559	-1581.5461	-1270.9905	1699.0005	1098.0789	-1271.5807	1660.0255	1099.3457	953.17029	1705.3562	1186.845	972.98969	1733.4954	1168.504	1026.5076	1669.2628	-1551.5793	1028.0071	1630.2942	-1552.0304	-64.330116	1172.3785	-958.13348	-63.870155	1133.4005	-956.90479
1127	9.3833333	-1038.1965	214.37117	-1644.1835	-1109.2887	203.85037	-1599.3706	-1063.854	172.57016	-1625.4031	-1054.1741	262.18243	-1634.9705	-1352.899	234.8463	1003.7156	-1281.2858	227.065	1052.3942	-1322.7649	194.09932	1020.8547	-1284.7537	287.83096	1052.8242	814.03333	187.56427	1209.6288	892.76703	179.08821	1178.8695	844.34283	145.61125	1198.2927	860.65735	292.77652	1167.2485	1115.765	209.7301	-1401.7086	1056.1633	194.01128	-1460.2455	1095.0566	162.58954	-1424.0284	1070.0444	238.77744	-1425.7284	-1204.5221	1685.9421	-1563.2307	-1129.1392	1688.2478	-1606.0804	-1173.1486	1724.4496	-1581.9718	-1133.9879	1580.9761	-1603.8434	-1239.7063	1699.2672	1119.4922	-1309.3278	1698.7534	1071.8907	-1270.438	1736.3352	1096.8816	-1244.7041	1593.6311	1106.653	988.91528	1664.2678	1162.3051	957.16382	1700.5796	1183.7665	922.70197	1662.1838	1215.0518	939.83362	1659.396	1159.9689	999.07562	1668.5447	-1579.4854	1058.8984	1670.1324	-1518.6511	1025.0183	1707.9962	-1551.1298	1059.271	1672.1199	-1585.4568	-26.502127	1172.9552	-954.25854	-111.67783	1172.0679	-963.04779	-64.763039	1209.6085	-959.28687	-60.641197	1170.5959	-989.69458	-68.963554	1175.3684	-910.4408																																														-1068.9747	209.81635	-1624.7825	-1074.286	248.44765	-1624.1388	-1321.5447	231.43941	1025.0284	-1320.2788	270.17761	1029.3585	847.75092	183.93439	1196.4561	851.20172	222.73689	1194.5966	1088.6962	202.5912	-1428.2937	1082.6055	240.89554	-1432.3781	-1171.8916	1686.9401	-1581.7788	-1170.5856	1647.9625	-1581.5782	-1270.9951	1699.0363	1098.0992	-1271.5774	1660.0614	1099.3717	952.93274	1705.4183	1186.6263	972.60699	1733.5554	1168.1271	1026.5105	1669.2727	-1551.5865	1028.0122	1630.3043	-1552.046	-64.491478	1172.5593	-958.17865	-64.205757	1133.5779	-957.01263
1128	9.3916667	-1038.2052	214.41927	-1644.2223	-1109.2964	203.8235	-1599.3501	-1063.782	172.58682	-1625.4434	-1054.1538	262.16418	-1634.968	-1352.9623	234.80255	1003.8148	-1281.3225	227.07498	1052.453	-1322.8304	194.04099	1020.9174	-1284.6066	287.85135	1052.7391	814.104	187.60851	1209.5995	892.75867	179.04597	1178.8574	844.383	145.58662	1198.3412	860.65625	292.69211	1167.2694	1115.7736	209.76897	-1401.7036	1056.2183	194.08293	-1460.2977	1095.0796	162.59172	-1424.043	1069.9088	238.66316	-1425.8491	-1204.5201	1685.9644	-1563.245	-1129.115	1688.2417	-1606.0719	-1173.1346	1724.4329	-1581.9808	-1133.7443	1580.9923	-1603.7087	-1239.6803	1699.2299	1119.4738	-1309.3118	1698.7294	1071.8784	-1270.4352	1736.3236	1096.8777	-1244.6772	1593.6078	1106.5164	988.87122	1664.2224	1162.2963	957.54077	1700.3243	1183.8245	922.56079	1662.1434	1214.9968	939.77521	1659.401	1159.9896	999.09222	1668.4928	-1579.4298	1058.8965	1670.1425	-1518.6448	1025.0159	1708.0011	-1551.13	1059.269	1672.1267	-1585.4694	-26.498568	1172.9366	-954.24097	-111.43885	1171.7003	-962.95813	-64.765869	1209.6016	-959.30237	-60.641777	1170.592	-989.69269	-68.940262	1175.3616	-910.43231																																														-1068.9418	209.83813	-1624.8215	-1074.2917	248.46405	-1624.1769	-1321.6293	231.42274	1025.0875	-1320.3846	270.1626	1029.4092	847.80951	183.93924	1196.4257	851.27582	222.73654	1194.4882	1088.7292	202.64587	-1428.3113	1082.656	240.95319	-1432.3936	-1171.8877	1686.9498	-1581.7787	-1170.5912	1647.972	-1581.5686	-1270.9857	1699.0048	1098.0754	-1271.5607	1660.0291	1099.3264	953.11066	1705.429	1186.8683	972.97321	1733.5718	1168.5802	1026.517	1669.2491	-1551.5553	1028.0266	1630.2808	-1551.983	-64.345009	1172.3859	-958.125	-63.904217	1133.4077	-956.89197
1129	9.4	-1038.2145	214.42715	-1644.213	-1109.1687	203.56528	-1599.4263	-1063.8352	172.56825	-1625.4346	-1054.17	262.16254	-1634.9558	-1352.9846	234.88336	1003.8406	-1281.3854	227.11618	1052.4176	-1322.7739	194.08795	1020.8417	-1284.619	287.86627	1052.7649	814.05676	187.68257	1209.5276	892.80768	179.1586	1178.7874	844.61407	145.33026	1198.3901	860.71088	292.6463	1167.3746	1115.7235	209.4814	-1401.5649	1056.2053	194.08531	-1460.3126	1095.092	162.62001	-1424.0239	1069.8936	238.67792	-1425.8795	-1204.5366	1685.95	-1563.2427	-1129.1229	1688.2361	-1606.062	-1173.15	1724.436	-1581.9751	-1133.7491	1581.0061	-1603.7203	-1239.6688	1699.2067	1119.4772	-1309.2808	1698.6848	1071.876	-1270.3849	1736.2534	1096.8553	-1244.7137	1593.6711	1106.4333	988.87109	1664.2062	1162.2644	957.2243	1700.5371	1183.821	922.56232	1662.129	1214.9139	939.79822	1659.3883	1159.9379	999.05872	1668.5477	-1579.499	1058.8846	1670.1377	-1518.6582	1025.0145	1707.9945	-1551.131	1059.2678	1672.1266	-1585.4526	-26.483168	1172.9672	-954.2644	-111.43846	1171.6964	-963.00183	-64.757309	1209.6036	-959.30536	-60.637405	1170.587	-989.68744	-68.922508	1175.3566	-910.42767																																														-1069.0767	209.70267	-1624.7325	-1074.5265	248.31311	-1624.0026	-1321.6201	231.4809	1025.12	-1320.4252	270.2099	1029.5511	847.97949	184.01076	1196.2859	851.35504	222.80705	1194.1755	1088.8167	202.52121	-1428.1233	1082.7886	240.85077	-1432.061	-1171.899	1686.9392	-1581.7739	-1170.5989	1647.9615	-1581.5649	-1270.9481	1698.972	1098.0879	-1271.5371	1659.9978	1099.3765	953.0011	1705.3853	1186.6978	972.80341	1733.5261	1168.3413	1026.5061	1669.2771	-1551.5859	1028.0073	1630.3087	-1552.0437	-64.319077	1172.4012	-958.1557	-63.859917	1133.4225	-956.95117
